<?xml version="1.0" encoding="UTF-8" standalone="no"?><!-- Generator: Gravit.io --><svg xmlns="http://www.w3.org/2000/svg" xmlns:xlink="http://www.w3.org/1999/xlink" style="isolation:isolate" viewBox="0 0 300 300" width="300pt" height="300pt"><g><circle vector-effect="non-scaling-stroke" cx="150" cy="150" r="124.00000000000001" fill="rgb(29,161,242)" fill-opacity="0.6"/><path d=" M 138.302 185.094 L 93.849 185.094 L 93.849 119.772 L 138.302 119.772 L 138.302 132.406 L 108.074 132.406 L 108.074 145.695 L 133.997 145.695 L 133.997 158.329 L 108.074 158.329 L 108.074 172.46 L 138.302 172.46 L 138.302 185.094 L 138.302 185.094 Z  M 150.655 185.094 L 150.655 119.772 L 175.268 119.772 L 175.268 119.772 Q 181.725 119.772 187.06 121.831 L 187.06 121.831 L 187.06 121.831 Q 192.394 123.89 196.137 127.961 L 196.137 127.961 L 196.137 127.961 Q 199.881 132.032 201.94 138.162 L 201.94 138.162 L 201.94 138.162 Q 203.998 144.291 203.998 152.433 L 203.998 152.433 L 203.998 152.433 Q 203.998 160.575 201.94 166.705 L 201.94 166.705 L 201.94 166.705 Q 199.881 172.835 196.137 176.906 L 196.137 176.906 L 196.137 176.906 Q 192.394 180.977 187.06 183.035 L 187.06 183.035 L 187.06 183.035 Q 181.725 185.094 175.268 185.094 L 175.268 185.094 L 150.655 185.094 L 150.655 185.094 Z  M 164.88 172.46 L 175.268 172.46 L 175.268 172.46 Q 181.632 172.46 185.282 168.904 L 185.282 168.904 L 185.282 168.904 Q 188.931 165.348 188.931 157.487 L 188.931 157.487 L 188.931 147.38 L 188.931 147.38 Q 188.931 139.518 185.282 135.962 L 185.282 135.962 L 185.282 135.962 Q 181.632 132.406 175.268 132.406 L 175.268 132.406 L 164.88 132.406 L 164.88 172.46 L 164.88 172.46 Z " fill="rgb(255,255,255)"/></g></svg>